<svg xmlns="http://www.w3.org/2000/svg" viewBox="0 0 32 32" role="img" aria-label="CoverageFixPro">
  <defs>
    <linearGradient id="favGrad" x1="0" y1="0" x2="1" y2="1">
      <stop offset="0" stop-color="#3b6ef5"/>
      <stop offset="1" stop-color="#1d4ed8"/>
    </linearGradient>
  </defs>
  <rect width="32" height="32" rx="7" fill="url(#favGrad)"/>
  <!-- 计算器 -->
  <rect x="6" y="6" width="13" height="17" rx="2.5" fill="#fff" opacity=".95"/>
  <rect x="8.3" y="8.3" width="8.4" height="3.4" rx=".8" fill="#1d4ed8"/>
  <rect x="8.3" y="13.5" width="2.6" height="2.6" rx=".6" fill="#3b6ef5"/>
  <rect x="12.4" y="13.5" width="2.6" height="2.6" rx=".6" fill="#3b6ef5"/>
  <rect x="8.3" y="17.6" width="2.6" height="2.6" rx=".6" fill="#3b6ef5"/>
  <rect x="12.4" y="17.6" width="2.6" height="2.6" rx=".6" fill="#3b6ef5"/>
  <!-- 盾牌 -->
  <path d="M18 13 C21.2 13.7 23.6 14.9 25.4 16.2 V21 C25.4 24.8 22.6 27.8 18 29.5 C13.4 27.8 10.6 24.8 10.6 21 V16.2 C12.4 14.9 14.8 13.7 18 13 Z" fill="#fff"/>
  <path d="M18 14.6 C20.6 15.2 22.6 16.1 24 17.1 V21 C24 24 21.8 26.4 18 27.9 C14.2 26.4 12 24 12 21 V17.1 C13.4 16.1 15.4 15.2 18 14.6 Z" fill="url(#favGrad)"/>
  <path d="M15 21 L17.2 23.2 L21.2 18.8" fill="none" stroke="#fff" stroke-width="2.2" stroke-linecap="round" stroke-linejoin="round"/>
</svg>
