<svg xmlns="http://www.w3.org/2000/svg" viewBox="0 0 224 40" role="img" aria-label="CoverageFixPro logo">
  <defs>
    <linearGradient id="cfpLogoGrad" x1="0" y1="0" x2="32" y2="32" gradientUnits="userSpaceOnUse">
      <stop offset="0" stop-color="#1d4ed8"/>
      <stop offset="1" stop-color="#3b6ef5"/>
    </linearGradient>
  </defs>
  <g transform="translate(4 4)">
    <rect width="32" height="32" rx="8" fill="url(#cfpLogoGrad)"/>
    <rect x="8" y="7" width="12" height="18" rx="2.5" fill="#fff"/>
    <rect x="10" y="9" width="8" height="4" rx="1" fill="#1d4ed8"/>
    <rect x="10" y="15" width="3" height="3" rx=".8" fill="#1d4ed8"/>
    <rect x="15" y="15" width="3" height="3" rx=".8" fill="#1d4ed8"/>
    <rect x="10" y="20" width="3" height="3" rx=".8" fill="#1d4ed8"/>
    <rect x="15" y="20" width="3" height="3" rx=".8" fill="#1d4ed8"/>
    <path d="M21 11c3 .7 5.1 1.8 6.6 3.1v5c0 4-2.5 7-6.6 8.6-4.1-1.6-6.6-4.6-6.6-8.6v-5c1.5-1.3 3.6-2.4 6.6-3.1z" fill="#fff"/>
    <path d="M21 13.4c2 .5 3.4 1.2 4.4 2v3.5c0 2.8-1.6 4.8-4.4 6.1-2.8-1.3-4.4-3.3-4.4-6.1v-3.5c1-.8 2.4-1.5 4.4-2z" fill="url(#cfpLogoGrad)"/>
    <path d="M18.4 19.5l1.8 1.8 4-4.3" fill="none" stroke="#fff" stroke-width="2.4" stroke-linecap="round" stroke-linejoin="round"/>
  </g>
  <text x="46" y="27" font-family="-apple-system,BlinkMacSystemFont,'Segoe UI',Roboto,sans-serif" font-size="20" font-weight="800" letter-spacing="-.6">
    <tspan fill="#0f172a">Coverage</tspan><tspan fill="#1d4ed8">Fix</tspan><tspan fill="#0f172a">Pro</tspan>
  </text>
</svg>
