<svg xmlns="http://www.w3.org/2000/svg" viewBox="0 0 224 40" role="img" aria-label="CoverageFixPro logo">
  <defs>
    <linearGradient id="cfpGrad" x1="0" y1="0" x2="1" y2="1">
      <stop offset="0" stop-color="#3b6ef5"/>
      <stop offset="1" stop-color="#1d4ed8"/>
    </linearGradient>
  </defs>
  <g transform="translate(4 4)">
    <!-- 计算器 -->
    <rect x="0" y="0" width="24" height="32" rx="5" fill="url(#cfpGrad)"/>
    <rect x="4.5" y="4.5" width="15" height="6" rx="1.5" fill="#fff" opacity=".95"/>
    <rect x="4.5" y="14" width="4.5" height="4.5" rx="1.1" fill="#fff" opacity=".9"/>
    <rect x="11.5" y="14" width="4.5" height="4.5" rx="1.1" fill="#fff" opacity=".9"/>
    <rect x="4.5" y="21.5" width="4.5" height="4.5" rx="1.1" fill="#fff" opacity=".9"/>
    <rect x="11.5" y="21.5" width="4.5" height="4.5" rx="1.1" fill="#fff" opacity=".9"/>
    <!-- 盾牌（右下叠加，带白描边脱离计算器）-->
    <path d="M22 13 C26.5 14 30 15.6 32.5 17.4 V24 C32.5 29.2 28.6 33.4 22 36 C15.4 33.4 11.5 29.2 11.5 24 V17.4 C14 15.6 17.5 14 22 13 Z" fill="#fff"/>
    <path d="M22 15 C25.8 15.9 28.7 17.2 30.7 18.7 V24 C30.7 28.2 27.6 31.6 22 33.8 C16.4 31.6 13.3 28.2 13.3 24 V18.7 C15.3 17.2 18.2 15.9 22 15 Z" fill="url(#cfpGrad)"/>
    <!-- 勾 -->
    <path d="M17.8 24 L20.8 27 L26.4 20.6" fill="none" stroke="#fff" stroke-width="2.6" stroke-linecap="round" stroke-linejoin="round"/>
  </g>
  <text x="46" y="27" font-family="-apple-system,BlinkMacSystemFont,'Segoe UI',Roboto,sans-serif" font-size="20" font-weight="800" letter-spacing="-.6">
    <tspan fill="#0f172a">Coverage</tspan><tspan fill="#1d4ed8">Fix</tspan><tspan fill="#0f172a">Pro</tspan>
  </text>
</svg>
